<?xml version="1.0" standalone="no"?>
<!DOCTYPE svg PUBLIC "-//W3C//DTD SVG 20010904//EN"
 "http://www.w3.org/TR/2001/REC-SVG-20010904/DTD/svg10.dtd">
<svg version="1.0" xmlns="http://www.w3.org/2000/svg"
 width="498.000000pt" height="498.000000pt" viewBox="0 0 498.000000 498.000000"
 preserveAspectRatio="xMidYMid meet">
<metadata>
Created by potrace 1.11, written by Peter Selinger 2001-2013
</metadata>
<g transform="translate(0.000000,498.000000) scale(0.100000,-0.100000)"
fill="#000000" stroke="none">
<path d="M457 4293 c-2 -5 -3 -165 -3 -356 1 -192 -1 -352 -4 -356 -7 -12 -81
-61 -92 -61 -4 0 -2 16 6 35 8 19 12 37 8 39 -4 2 -30 0 -57 -6 -66 -14 -144
-18 -151 -7 -6 10 -63 -17 -65 -31 -1 -6 -2 -18 -4 -27 -1 -10 -5 -25 -8 -33
-4 -8 -3 -28 1 -45 7 -23 4 -36 -10 -55 -13 -18 -18 -45 -19 -95 -2 -110 1
-116 92 -160 43 -22 79 -44 79 -50 0 -6 -12 -22 -28 -35 -15 -14 -35 -37 -44
-51 -16 -25 -15 -27 18 -63 33 -36 34 -39 17 -52 -10 -7 -21 -14 -24 -14 -4 0
-9 -13 -11 -29 -2 -17 -1 -28 4 -25 10 6 -1 -26 -15 -44 -6 -7 -12 -25 -13
-39 -2 -15 -15 -37 -29 -50 -39 -37 -53 -64 -59 -119 -9 -78 5 -107 59 -123
25 -7 45 -17 45 -22 0 -7 20 -6 45 3 6 1 11 -1 12 -5 1 -4 9 -15 17 -23 9 -8
19 -21 23 -28 5 -7 19 -20 32 -29 23 -16 27 -15 60 5 20 12 40 28 44 35 11 17
17 16 47 -8 l25 -21 1 -822 c1 -451 2 -825 3 -831 1 -7 679 -9 2018 -8 1110 2
2025 4 2033 5 13 3 15 101 15 810 l1 807 23 25 24 26 32 -20 32 -20 33 25 c18
13 41 38 52 55 15 25 22 29 32 21 10 -9 22 -8 47 3 19 7 46 19 61 25 19 7 28
18 28 33 0 13 2 46 4 73 3 56 -4 74 -46 121 -47 51 -67 97 -65 145 2 39 -1 46
-26 59 l-28 16 36 36 c33 32 35 38 23 57 -10 17 -10 25 -1 41 10 16 10 22 -4
36 -32 31 -27 54 16 71 l39 15 1 142 c1 77 1 150 1 161 0 11 -1 39 -1 62 0 32
-5 45 -22 56 -14 9 -29 12 -38 7 -17 -10 -97 -5 -163 9 -27 6 -51 10 -52 8 -2
-2 3 -16 12 -32 19 -37 5 -51 -27 -27 l-24 20 0 371 1 371 -2033 0 c-1117 0
-2034 -3 -2036 -7z m3923 -122 c13 -1 15 -29 15 -186 0 -166 -2 -186 -17 -191
-10 -3 -26 0 -37 5 -11 6 -34 9 -53 7 -18 -2 -37 -1 -43 2 -22 14 -38 9 -77
-28 -31 -28 -50 -38 -75 -38 -18 0 -39 -5 -47 -11 -7 -6 -15 -8 -19 -5 -3 3
-14 -7 -24 -23 -9 -15 -26 -34 -35 -41 -10 -7 -18 -18 -18 -23 0 -5 -10 -20
-23 -33 -25 -25 -79 -28 -121 -8 -30 15 -78 26 -101 23 -53 -6 -68 -12 -111
-45 -26 -20 -56 -36 -68 -36 -40 0 -151 -93 -162 -136 -4 -14 -12 -28 -20 -31
-20 -7 -154 28 -200 52 -70 39 -89 50 -94 56 -3 3 -31 20 -62 37 -61 35 -55
35 -268 16 -99 -8 -200 -9 -250 0 -69 11 -101 16 -150 21 -25 3 -54 7 -65 9
-163 30 -177 30 -240 1 -33 -15 -64 -28 -70 -29 -5 -1 -36 -14 -69 -29 -32
-15 -60 -27 -62 -27 -2 0 -29 -12 -61 -26 -32 -14 -67 -29 -78 -34 -11 -4 -37
-15 -58 -25 -20 -9 -41 -13 -47 -10 -5 3 -8 69 -7 150 2 122 0 146 -13 150 -8
3 -37 25 -65 50 -27 25 -51 40 -53 35 -2 -6 -8 -10 -13 -10 -5 0 -36 -21 -69
-47 -49 -39 -58 -52 -54 -70 4 -13 2 -23 -2 -24 -5 0 -19 -2 -31 -3 -12 -1
-27 1 -34 4 -12 8 -102 -12 -122 -27 -18 -13 -94 -8 -112 7 -9 7 -14 18 -12
25 7 16 -75 104 -100 108 -12 2 -25 6 -29 9 -3 4 -12 4 -20 1 -9 -3 -36 12
-64 36 -39 33 -53 40 -72 33 -13 -4 -43 -8 -67 -7 l-45 0 0 182 c-1 101 2 184
7 185 6 3 3739 1 3787 -1z m-3530 -2222 c0 -15 21 -33 58 -50 17 -7 32 -17 32
-21 0 -5 5 -8 11 -8 6 0 24 -9 40 -21 16 -11 29 -17 29 -13 0 4 8 1 18 -7 9
-8 28 -20 41 -27 13 -8 39 -22 57 -33 19 -10 51 -28 72 -40 20 -12 42 -24 47
-27 6 -4 81 -7 169 -7 l159 -1 61 -79 c46 -60 78 -89 131 -121 39 -23 75 -47
82 -53 7 -6 15 -11 18 -11 4 0 27 -15 53 -32 l47 -33 165 0 164 -1 35 31 c20
16 45 40 57 53 12 12 24 22 27 22 3 0 21 15 40 34 30 29 156 102 161 94 4 -4
46 -98 66 -143 15 -35 25 -43 79 -63 34 -13 67 -25 74 -26 7 -1 28 -9 48 -18
20 -9 47 -19 60 -23 13 -4 38 -13 54 -20 17 -7 73 -29 125 -48 74 -27 98 -32
109 -24 8 7 17 11 20 11 9 -2 33 6 55 18 10 5 26 11 35 13 30 8 226 90 232 98
3 5 9 8 13 7 7 -2 96 40 106 50 3 3 19 12 35 20 17 8 33 19 37 25 4 5 8 7 8 3
0 -4 26 8 58 26 31 17 65 35 75 39 19 7 18 43 -2 115 -5 17 -7 33 -3 36 3 3 0
6 -7 6 -7 0 -10 4 -7 9 3 4 -2 37 -12 72 -23 88 -22 103 8 105 14 1 64 9 112
19 69 14 89 22 94 37 6 19 7 19 29 -2 22 -21 26 -22 67 -8 24 8 64 14 91 13
26 0 47 3 47 7 0 5 9 4 20 -2 11 -6 20 -7 20 -3 0 4 5 2 12 -5 9 -9 12 -150
12 -563 1 -303 -1 -554 -4 -557 -7 -10 -1140 -8 -1140 1 0 5 -5 5 -12 1 -17
-11 -228 -11 -228 -1 0 5 -5 5 -12 1 -16 -10 -1028 -11 -1028 -1 0 5 -5 5 -12
1 -17 -11 -228 -11 -228 -1 0 5 -5 5 -12 1 -16 -10 -1028 -11 -1028 -1 0 5 -5
5 -12 1 -23 -14 -79 -10 -87 6 -3 8 -6 263 -5 565 l1 550 64 0 c35 0 75 -6 89
-12 34 -17 44 -16 65 7 19 22 45 27 45 9z"/>
</g>
</svg>
